<?xml version="1.0" encoding="UTF-8" standalone="no"?>
<svg width="370px" height="339px" viewBox="0 0 370 339" version="1.1" xmlns="http://www.w3.org/2000/svg" xmlns:xlink="http://www.w3.org/1999/xlink" xmlns:sketch="http://www.bohemiancoding.com/sketch/ns">
    <!-- Generator: Sketch 3.4.4 (17249) - http://www.bohemiancoding.com/sketch -->
    <title>Australia_states_blank</title>
    <desc>Created with Sketch.</desc>
    <defs></defs>
    <g id="Page-1" stroke="none" stroke-width="1" fill="none" fill-rule="evenodd" sketch:type="MSPage">
        <g id="falconfilms" sketch:type="MSArtboardGroup" transform="translate(-515.000000, -7260.000000)">
            <g id="Australia_states_blank" sketch:type="MSLayerGroup" transform="translate(515.000000, 7260.000000)">
                <g id="layer1" transform="translate(0.000000, 0.120314)" sketch:type="MSShapeGroup">
                    <path d="M140.458784,39.4925294 L134.417546,38.3607339 L131.963293,37.6062035 L126.110844,32.3244911 L122.901436,31.0040631 L120.447183,29.683635 L118.370508,29.683635 L116.860198,30.8154305 L117.426564,32.7017564 L116.105043,33.4562867 L115.349889,32.7017564 L111.196537,34.210817 L109.497439,38.5493665 L107.420764,37.2289384 L103.078624,39.3038968 L101.379526,41.7561204 L103.456201,44.0197114 L102.889835,44.0197114 L101.190737,44.5856091 L101.568314,47.9809956 L99.1140614,47.4150979 L96.0934424,49.8673209 L95.5270763,51.3763815 L95.9046537,53.2627074 L96.8485972,54.771768 L95.149499,56.8467264 L95.715865,58.3557871 L92.1288799,57.9785219 L89.8634157,57.4126242 L88.1643175,57.9785219 L88.7306836,59.4875826 L87.9755288,61.9398062 L90.8073591,64.9579275 L90.2409931,66.8442533 L89.1082609,65.7124578 L88.3531062,70.9941702 C88.3531062,70.9941702 86.4652193,70.0510072 85.8988532,69.2964769 C85.3324872,68.5419466 82.3118682,61.7511736 82.3118682,61.7511736 L82.3118682,60.8080107 L80.9903473,61.562541 L77.2145736,66.089723 L74.9491093,68.9192118 L74.5715319,71.9373331 L75.7042641,75.144087 L76.8369962,77.7849432 L75.5154754,79.8599016 L71.7397016,83.2552881 L69.663026,90.2346936 L67.2087731,93.4414475 L61.3563237,96.836834 L59.4684369,98.3458947 L54.3711423,99.4776902 L52.8608328,100.798118 L47.5747495,99.6663228 L45.8756513,102.873077 L44.9317078,103.627607 L39.2680472,105.136668 L37.9465264,106.268463 L36.6250056,108.532054 L32.8492318,109.852482 L28.8846693,109.286585 L25.6752616,109.66385 L23.03222,111.361543 L19.0676575,115.700092 L15.4806725,120.227274 L10.1945892,122.86813 L8.1179136,124.754456 L7.17397016,130.790699 L5.47487196,131.733862 L4.15335115,131.733862 L3.39819639,125.886252 L1.88788688,126.263517 L0,133.620188 L2.26546426,136.826942 L2.45425295,138.9019 L1.88788688,143.99498 L0.566366065,147.201734 L0.566366065,152.294813 L3.2094077,155.124302 L4.9085059,158.896954 L8.87306836,163.235503 L11.3273213,166.253625 L11.51611,170.780807 L8.68427967,169.271746 L3.39819639,163.801401 L2.83183033,166.253625 L6.04123803,169.460379 L7.92912491,172.101235 L3.58698508,171.535337 L4.34213983,173.23303 L10.3833779,179.835171 L12.6488421,183.796455 L13.2152082,187.003209 L19.2564462,194.171247 L22.4658539,198.887061 L23.4097974,203.980141 L23.5985861,206.998263 L25.8640503,211.90271 L31.527711,220.013915 L32.8492318,223.220668 L33.7931752,231.520502 L34.3595413,235.859051 L34.1707526,238.311275 L33.2268092,241.518029 L31.9052883,241.895294 L29.073458,240.763499 L29.073458,242.838457 L29.6398241,247.365639 L30.7725562,249.251965 L32.8492318,248.497435 L36.8137942,249.817863 L40.0232019,252.835984 L42.8550323,253.967779 L48.1411155,254.156412 L53.4271988,253.590514 L58.9020708,251.515556 L60.601169,250.006495 L63.2442106,246.422476 L66.0760409,245.479313 L68.1527165,244.53615 L68.7190826,241.518029 L72.3060677,239.443071 L80.4239813,238.122642 L85.5212759,237.17948 L89.8634157,238.122642 L97.0373858,236.802214 L98.3589067,236.802214 L100.058005,237.17948 L103.456201,235.481786 L105.721666,232.275032 L106.665609,227.370585 L107.98713,226.427422 L111.762904,225.672892 L122.523859,218.693483 L125.922055,218.127585 L133.096025,218.50485 L137.060588,216.241259 L143.479403,212.845873 L146.8776,211.336812 L140.458784,40.4356923 L140.458784,39.4925294 Z" id="path3031" fill="#DDDDDD"></path>
                    <g id="g3843" transform="translate(142.157882, 0.754530)" fill="#DDDDDD">
                        <path d="M0,40.2470597 L2.83183033,39.6811619 L5.66366065,40.4356923 L5.85244934,37.9834687 L3.02061901,35.15398 L2.83183033,33.2676541 L3.96456246,31.1926956 L6.04123803,31.0040631 L7.17397016,25.1564531 L8.87306836,25.7223508 L10.9497439,23.0814946 L9.8170118,20.8179036 L9.8170118,18.9315778 L11.51611,18.9315778 L12.0824761,17.2338846 L14.3479403,15.9134565 L14.7255177,13.2726003 L17.557348,13.2726003 L19.0676575,11.1976419 L23.03222,12.3294374 L27.1855711,11.7635397 L29.4510354,12.51807 L32.6604431,10.6317436 L35.4922734,9.87721327 L34.7371187,6.10456161 L32.8492318,4.40686836 L30.2061901,4.02960319 L28.3183033,1.95464478 L32.8492318,0.0683189489 L36.6250056,4.21823578 L38.5128924,2.89780769 L40.7783567,6.48182677 L45.3092852,7.61362227 L47.7635382,6.29319419 L48.1411155,7.99088744 L56.4478178,9.4999481 L57.58055,9.68858068 L60.4123803,11.9521722 L61.9226898,12.1408048 L63.4329993,10.6317436 L66.0760409,11.0090088 L66.642407,12.3294374 L69.09666,11.7635397 L70.2293921,14.2157632 L71.9284903,14.4043958 L73.2500111,12.51807 L71.9284903,11.0090088 L74.5715319,9.68858068 L75.137898,9.68858068 L76.2706301,11.3862745 L77.5921509,11.7635397 L78.5360944,12.1408048 L79.4800378,13.6498655 L77.5921509,15.7248239 L76.2706301,17.7997823 L74.7603206,17.9884149 L75.137898,20.4406385 L74.0051659,22.1383317 L72.3060677,21.572434 L68.5302939,24.0246576 L68.5302939,27.2314115 L69.663026,28.3632069 L67.9639278,31.3813282 L68.1527165,32.3244912 L66.4536183,33.6449193 L64.1881541,37.417571 L63.4329993,37.9834687 L64.1881541,40.6243249 L71.3621242,45.3401394 L72.117279,46.8492001 L75.3266867,48.5468934 L76.0818414,50.9991164 L79.6688265,50.4332186 L83.4446003,52.8854422 L86.4652193,54.3945029 L87.9755288,57.2239916 L84.5773324,152.483446 L66.0760409,151.917548 L42.8550323,151.540283 L12.0824761,152.483446 L3.77577377,152.672079 L0,40.2470597 Z" id="path3033"></path>
                        <path d="M8.1179136,7.99088744 L11.8936874,8.74541777 L14.9143064,7.61362227 L17.7461367,8.3681526 L21.8994879,5.91592902 L23.4097974,3.84097061 L23.2210087,1.57737961 L21.1443331,1.01148186 L16.0470385,2.89780769 L12.2712647,1.7660122 L10.9497439,2.70917511 L9.25064573,4.78413352 L9.43943442,5.72729644 L8.1179136,7.99088744 Z" id="path3035"></path>
                        <path d="M72.8724337,33.2676541 L78.3473057,33.6449193 L79.4800378,32.3244912 L77.5921509,30.8154305 L78.158517,28.1745743 L74.3827432,26.8541463 L74.0051659,28.1745743 L73.2500111,31.947226 L72.8724337,33.2676541 Z" id="path3037"></path>
                    </g>
                    <path d="M253.35442,186.437311 L280.917568,188.700902 L301.117958,190.587228 L323.772601,193.039451 L326.604431,190.209963 L328.869895,189.644065 L330.757782,190.209963 L334.722345,190.02133 L336.043865,190.964493 L337.176598,191.341758 L339.253273,191.719023 L340.574794,192.662186 L341.518737,193.416717 L342.840258,194.925777 L343.029047,196.812103 L344.350568,197.189368 L345.860877,196.434838 L346.804821,194.737145 L348.503919,195.680308 L350.580594,195.680308 L351.335749,193.793982 L351.14696,192.096288 L355.677889,190.02133 L357.754565,190.587228 L359.642451,191.530391 L364.17338,190.587228 L363.984591,195.491675 L361.530338,200.018857 L359.453663,205.866467 L356.99941,211.336812 L356.99941,214.732198 L355.300312,218.693483 L353.223636,223.220668 L351.335749,225.484259 L349.82544,227.74785 L348.881496,230.388707 L342.085103,234.727256 L336.79902,240.952131 L335.099922,245.102048 L333.023246,248.8747 L331.324148,254.533677 L328.869895,256.985901 L325.471699,260.56992 L323.583812,265.285734 L322.073502,269.812916 L320.94077,276.603689 L319.996827,277.735485 L307.536773,269.624284 L307.725562,266.794795 L306.970407,264.908469 L306.970407,261.701715 L303.572211,260.192655 L299.607649,260.758552 L296.020663,260.004022 L291.678524,259.81539 L286.581229,258.117696 L283.371821,256.797268 L280.539991,257.363166 L280.351202,258.494961 L280.539991,259.626757 L279.973625,259.81539 L278.652104,259.060859 L276.575429,255.665473 L274.309964,253.213249 L271.289345,251.515556 L270.345402,249.817863 L269.023881,248.308802 L269.779036,245.102048 L267.891149,244.253201 L264.398558,243.121406 L262.793854,244.347518 L261.472333,241.329396 L261.283545,239.631703 L257.69656,237.17948 L255.997461,236.613582 L254.298363,237.556745 L250.333801,236.047684 L253.35442,186.437311 Z" id="path3041" fill="#DDDDDD"></path>
                    <path d="M313.865638,257.480547 L315.564736,254.839691 L315.088321,255.099575 L317.353785,255.099575 L316.821518,254.727069 L317.576673,256.802027 L317.670597,256.250288 L315.971499,258.325246 L315.891157,258.42336 L315.860386,258.546344 L314.916443,262.318995 L315.886875,262.07768 L314.187777,260.191354 L314.30928,260.40731 L313.742914,258.520985 L313.762427,258.753785 L313.951215,257.244724 L313.865638,257.480547 L313.865638,257.480547 Z M312.912808,256.86852 L312.843197,256.976714 L312.82723,257.104342 L312.638442,258.613403 L312.623622,258.73186 L312.657954,258.846204 L313.22432,260.732529 L313.260829,260.854125 L313.345824,260.948486 L315.044922,262.834811 L315.757138,263.625508 L316.015354,262.593496 L316.959298,258.820844 L316.848185,259.041942 L318.547283,256.966983 L318.751322,256.717809 L318.641207,256.415244 L317.886052,254.340286 L317.750483,253.967779 L317.353785,253.967779 L315.088321,253.967779 L314.779113,253.967779 L314.611906,254.227664 L312.912808,256.86852 L312.912808,256.86852 Z" id="Shape" fill="#DDDDDD"></path>
                    <path d="M249.956223,237.556745 L247.690759,278.11275 L252.221688,281.319504 L254.487152,279.810443 L257.69656,281.130871 L262.605066,283.771728 L266.758417,286.789849 L274.87633,283.017197 L276.575429,281.508137 L279.029681,277.924118 L280.162414,279.999076 L279.029681,282.639932 L278.652104,283.771728 L283.183033,286.412584 L285.826074,288.110277 L286.581229,289.430705 L293.755199,287.921644 L299.607649,282.639932 L304.704943,280.942239 L311.123759,280.753606 L316.976208,281.130871 L319.241672,278.86728 L306.404041,270.378814 L305.837675,268.869754 L306.404041,266.606163 L305.648887,265.851632 L305.271309,262.833511 L303.572211,262.267613 L301.306747,261.890348 L299.607649,262.644878 L297.153396,261.890348 L295.454297,261.135818 L293.188833,262.078981 L291.489735,261.32445 L286.014863,259.438124 L284.126976,258.683594 L281.861512,258.683594 L281.483934,260.758552 L280.351202,261.32445 L278.55771,261.135818 L276.764217,258.306329 L275.253908,255.665473 L272.422077,253.401882 L269.779036,252.458719 L268.363121,249.912179 L268.174332,247.177006 L267.607966,245.290681 L265.720079,244.724783 L264.115375,244.347518 L262.605066,245.667946 L261.094756,243.404355 L260.150813,242.083927 L260.150813,240.386233 L256.941405,238.499908 L255.242307,239.065805 L253.165631,238.68854 L249.956223,237.556745 Z" id="path3813" fill="#10041A"></path>
                    <g id="g3834" transform="translate(268.457515, 293.700932)" fill="#DDDDDD">
                        <path d="M19.8228123,44.8685612 L21.6163048,41.8504399 L23.1266143,41.2845421 L25.1088956,37.4175742 L25.9584447,37.4175742 L28.2239089,37.7948393 L29.356641,36.380095 L30.9613449,30.90975 L32.8492318,29.1177405 L33.3212035,24.8735074 L33.5099922,21.2894883 L34.3595413,18.8372647 C34.3595413,18.8372647 32.4716544,16.1964086 32.094077,16.1964086 C31.7164997,16.1964086 29.356641,17.7997855 29.356641,17.7997855 L24.4481352,17.8941018 L22.3714596,18.4599996 L18.9732632,19.3088462 L13.1208138,16.4793574 L7.07957582,13.3669198 L6.23002672,13.4612361 L5.66366065,15.4418782 L5.19168893,17.4225204 L6.60760409,21.8553861 L8.02351926,25.1564563 L9.62822311,28.1745776 L10.2889835,30.8154338 L9.72261745,32.6074433 L9.62822311,34.0221877 L12.3656591,40.0584303 L13.7815743,43.2651842 L14.9143064,43.831082 L16.990982,43.6424494 L18.9732632,44.8685612 L19.8228123,44.8685612 Z" id="path3817"></path>
                        <path d="M31.3389223,6.48183054 L32.4716544,5.35003505 L33.1324148,5.25571875 L34.3595413,7.04772829 L35.3978791,8.93405412 L35.3034847,11.2919614 L33.6043865,11.7635429 L32.3772601,9.68858446 L31.527711,7.42499346 L31.3389223,6.48183054 Z" id="path3819"></path>
                        <path d="M0.849549098,0.256955305 L0,2.5205463 L0,5.44435134 L0.660760409,6.48183054 L1.51030951,6.67046313 L2.35985861,5.63298392 L3.11501336,3.36939292 L3.02061901,1.57738339 L2.73743598,0.822853054 L2.17106992,0.0683227216 L0.849549098,0.256955305 Z" id="path3821"></path>
                    </g>
                    <g id="g3829" transform="translate(228.434313, 0.000000)" fill="#DDDDDD">
                        <path d="M3.39819639,58.9216849 L6.23002672,59.8648478 L10.3833779,61.3739084 L12.6488421,63.0716017 L14.536729,67.0328859 L17.9349254,68.353314 L21.5219105,71.1828027 L24.7313182,70.4282724 L27.9407259,70.0510072 L30.0174015,67.2215185 L32.2828657,63.2602343 L34.7371187,60.0534803 L36.4362169,54.3945029 L36.8137942,50.8104838 L39.2680472,44.3969765 L38.1353151,41.3788552 L39.0792585,36.2857755 L38.5128924,34.0221845 L37.568949,31.7585934 L39.0792585,28.9291046 L40.589568,26.6655137 L40.2119906,22.5155969 L42.0998775,21.572434 L43.4213983,19.8747407 L40.9671454,17.6111497 L45.1204965,11.1976413 L46.630806,4.78413352 L47.1971721,3.08644028 L49.2738477,1.95464478 L51.1617346,0.0683189489 L52.105678,0.445584115 L51.9168893,1.7660122 L54.1823536,3.65233803 L54.3711423,11.7635391 L55.5038744,13.0839677 L57.0141839,14.0271307 L55.5038744,16.6679868 L58.7132821,20.4406385 L58.7132821,21.9496991 L59.6572255,24.7791879 L59.0908595,31.5699608 L60.4123803,36.2857755 L61.167535,39.6811619 L63.4329993,40.8129574 L65.8872523,38.5493665 L68.9078713,37.9834687 L69.663026,41.1902226 L73.6275885,44.5856091 L75.5154754,46.0946698 L75.3266867,51.5650141 L76.2706301,56.0921961 L76.0818414,58.9216849 L75.7042641,61.562541 L80.0464039,70.616905 L81.3679247,73.0691286 L81.179136,77.2190454 L79.8576152,80.2371667 L82.3118682,81.1803296 L81.7455021,85.7075116 L81.5567134,87.5938375 L84.199755,90.8005914 L88.1643175,93.4414475 L92.1288799,93.8187127 L92.8840347,96.0823037 L93.6391895,98.7231599 L97.9813293,99.4776902 L99.8692162,103.438974 L101.568314,102.118546 L104.588933,104.948035 L103.64499,107.211626 L105.721666,111.738808 L107.798341,116.454623 L108.553496,123.622661 L108.553496,127.395312 L111.196537,127.96121 L111.951692,128.715741 L112.32927,124.565824 L114.028368,125.697619 L118.181719,130.224801 L119.880817,133.242923 L118.936874,139.279165 L123.467802,145.50404 L126.110844,146.069938 L127.809942,148.710794 L128.376308,151.917548 L131.774505,154.369772 L132.529659,156.821995 L133.473603,159.274219 L134.983912,160.594647 L134.795124,163.801401 L136.305433,166.442257 L135.927856,167.762685 L134.795124,169.460379 L134.983912,176.817049 L134.795124,178.703375 L133.284814,178.514742 L134.228757,180.966966 L135.927856,184.739618 L135.550278,189.455432 L131.01935,189.832697 L127.243576,188.323637 L121.579915,191.341758 L121.202338,194.171247 L118.936874,193.982614 L117.99293,193.793982 L116.293832,195.86894 L115.349889,196.057573 L115.727466,194.171247 L114.405945,192.662186 L113.462002,191.341758 L111.007749,190.398595 L108.553496,190.398595 L107.420764,188.512269 L102.889835,189.2668 L100.058005,187.757739 L97.4149632,188.700902 L94.7719216,191.341758 L65.1320975,188.512269 L48.8962703,186.625944 L26.8079938,185.116883 L24.7313182,184.92825 L26.8079938,154.747037 L0,153.426609 L3.39819639,58.9216849 Z" id="path3039"></path>
                        <path d="M14.253546,60.3364292 L15.4806725,60.5250618 L16.990982,60.0534803 L19.0676575,59.0160011 L20.1059953,58.8273686 L20.3891783,57.7898894 L20.011601,56.9410427 L17.1797706,56.4694613 L15.6694611,56.9410427 L14.4423347,57.8842056 L13.6871799,58.9216849 L13.5927856,59.9591641 L14.253546,60.3364292 Z" id="path3823"></path>
                        <path d="M136.305433,159.651484 L136.871799,162.29234 L138.19332,162.669606 L139.892418,160.217382 L140.647573,156.821995 L138.570897,155.312935 L137.249376,156.256098 L136.305433,159.651484 Z" id="path3825"></path>
                    </g>
                    <g id="g3839" transform="translate(146.122445, 153.924188)" fill="#DDDDDD">
                        <path d="M99.9636105,123.339716 L97.3205689,122.962451 L95.3382877,120.69886 L91.7513026,114.191035 L90.9961478,111.738812 L91.7513026,109.852486 L90.8073591,105.702569 L90.1465987,101.646969 L87.5979514,99.3833777 L84.8605154,97.1197867 L82.7838399,97.4027356 L81.5567134,97.7800007 L79.1024604,97.4970519 L79.2912491,96.2709401 L81.6511077,92.3096558 L82.1230795,90.2346974 L82.0286851,88.159739 L78.9136718,83.2552918 L78.2529113,85.1416177 L76.1762358,92.2153395 L74.5715319,92.9698699 L70.1349977,92.9698699 L69.1910543,90.8005952 L70.2293921,90.0460648 L72.5892507,89.9517485 L72.9668281,88.4426879 L73.5331941,83.5382407 L74.5715319,79.765589 L77.2145736,77.5019981 L77.875334,76.3702026 L77.7809396,73.3520812 L79.0080661,72.6918672 L79.3856435,72.2202857 L77.2145736,66.1840431 L76.3650245,66.3726757 L76.1762358,69.7680621 L74.854715,71.1828065 L72.4948564,75.2384071 L71.3621242,77.5019981 L69.09666,77.8792632 L65.6984636,80.2371705 L63.1498163,83.9155059 L60.9787464,87.4052087 L58.8076764,89.0085856 L56.7310009,88.159739 L54.559931,80.8973845 L54.4655366,79.0110587 L51.822495,76.4645188 L50.0290024,72.4089183 L47.6691438,71.5600717 L45.9700456,69.8623784 L45.2148909,68.4476341 L46.347623,66.3726757 L44.4597361,65.3351927 L43.5157927,63.9204483 L42.2886662,61.9398062 L40.4951737,61.0909596 L37.568949,62.0341225 L36.0586395,60.902327 L34.0763583,59.8648478 L32.094077,59.4875826 L31.1501336,60.2421129 L29.6398241,60.2421129 L27.3743598,58.638736 L23.9761634,56.5637776 L21.0499388,55.1490332 L20.011601,54.9604006 L19.1620519,55.1490332 L17.7461367,55.9035635 L13.3096025,55.9978798 L2.35985861,56.7524101 L0,0.728532989 L34.1707526,0.0683189489 L61.0731407,0.16263524 L88.7306836,1.29443074 L107.609552,2.04896107 L100.529977,123.528348 L99.9636105,123.339716 Z" id="path3815"></path>
                        <path d="M67.2087731,96.4595726 L67.0199844,98.5345311 L68.5302939,99.6663266 L70.4181808,99.6663266 L75.7042641,99.2890614 L77.5921509,97.4027356 L75.7042641,95.3277771 L73.8163772,95.3277771 L67.2087731,96.4595726 Z" id="path3827"></path>
                    </g>
                </g>
            </g>
        </g>
    </g>
</svg>