<?xml version="1.0" encoding="UTF-8" standalone="no"?>
<svg width="48px" height="24px" viewBox="0 0 48 24" version="1.1" xmlns="http://www.w3.org/2000/svg" xmlns:xlink="http://www.w3.org/1999/xlink" xmlns:sketch="http://www.bohemiancoding.com/sketch/ns">
    <!-- Generator: Sketch 3.5.1 (25234) - http://www.bohemiancoding.com/sketch -->
    <title>Page 1</title>
    <desc>Created with Sketch.</desc>
    <defs>
        <linearGradient x1="0%" y1="50%" x2="76.8697917%" y2="50%" id="linearGradient-1">
            <stop stop-color="#00BDE8" offset="0%"></stop>
            <stop stop-color="#0088CC" offset="100%"></stop>
        </linearGradient>
    </defs>
    <g id="Page-1" stroke="none" stroke-width="1" fill="none" fill-rule="evenodd" sketch:type="MSPage">
        <g id="order-expanded" sketch:type="MSArtboardGroup" transform="translate(-668.000000, -60.000000)" fill="url(#linearGradient-1)">
            <path d="M675.272,60 L670.2688,65.8 C670.0688,66 669.9344,66.2 669.7344,66.4 C669.6688,66.4656 669.6,66.5344 669.5344,66.6656 C669,67.2656 668.5344,67.8 668,68.4 C668.5344,69 669.0656,69.6 669.5344,70.2656 C669.7344,70.5312 669.9344,70.8 670.2,71 L673.5344,74.9344 C674.0688,75.5344 674.5344,76.1344 675.0688,76.7344 L675.2688,76.9344 L679.9344,76.9344 L674.2,70.2688 L672.8656,68.7344 L674.2,70.2688 C684.9344,70.3344 695.7344,70.3344 706.5344,70.4032 C708.0688,70.4688 709.3344,71.1376 710.2688,72.0688 C711.2032,73.0032 711.7344,74.2688 711.7344,75.5344 L711.7344,75.8 C711.6688,76.8656 711.2,77.9344 710.4,78.8 C709.6656,79.6 708.6,80.2656 707.3344,80.4656 L689.8688,80.4656 L689.8688,84 L707.6032,84 L707.872,84 C709.9376,83.6 711.7376,82.6 713.0064,81.2 C714.3408,79.8 715.1408,77.9344 715.272,76 L715.272,75.5344 C715.272,73.2688 714.3376,71.2 712.8064,69.6 C711.272,68 709.1408,66.9344 706.672,66.8656 C695.7408,66.8 685.0064,66.8 674.2064,66.7312 L679.9376,60 L675.272,60 Z" id="Page-1" sketch:type="MSShapeGroup"></path>
        </g>
    </g>
</svg>