<?xml version="1.0" encoding="UTF-8" standalone="no"?>
<svg width="218px" height="30px" viewBox="0 0 218 30" version="1.1" xmlns="http://www.w3.org/2000/svg" xmlns:xlink="http://www.w3.org/1999/xlink" xmlns:sketch="http://www.bohemiancoding.com/sketch/ns">
    <!-- Generator: Sketch 3.5.1 (25234) - http://www.bohemiancoding.com/sketch -->
    <title>falcon-films-logo-wide</title>
    <desc>Created with Sketch.</desc>
    <defs></defs>
    <g id="Page-1" stroke="none" stroke-width="1" fill="none" fill-rule="evenodd" sketch:type="MSPage">
        <g id="falcon-films-logo-wide" sketch:type="MSLayerGroup" fill="#10041A">
            <g id="Page-1" sketch:type="MSShapeGroup">
                <g id="Group">
                    <path d="M62.169,6.1 C61.845,6.1 61.602,6.37 61.602,6.667 L61.602,25 L62.952,25 C63.249,25 63.519,24.757 63.519,24.433 L63.519,16.792 C63.519,16.522 63.735,16.333 64.005,16.333 L65.301,16.333 C65.922,16.333 66.192,16.036 66.327,15.793 L66.975,14.389 L63.519,14.389 L63.519,8.503 C63.519,8.26 63.735,8.044 63.978,8.044 L66.138,8.044 C66.759,8.044 67.029,7.747 67.164,7.504 C67.245,7.342 67.596,6.586 67.785,6.1 L62.169,6.1 L62.169,6.1 Z M81.364,25 L79.231,25 L77.53,11.986 L75.829,25 L73.696,25 L76.558,6.1 L77.611,6.1 C78.421,6.1 78.556,6.613 78.637,7.126 L81.364,25 L81.364,25 Z M90.731,23.083 L90.731,6.694 C90.731,6.37 90.461,6.127 90.137,6.1 L88.787,6.1 L88.787,25 L93.431,25 C94.052,25 94.349,24.73 94.484,24.487 C94.565,24.325 94.889,23.569 95.105,23.083 L90.731,23.083 L90.731,23.083 Z M107.064,18.223 C106.578,18.439 105.822,18.763 105.66,18.844 C105.417,18.979 105.147,19.276 105.147,19.897 L105.147,22.435 C105.147,23.029 104.688,23.488 104.094,23.488 C103.527,23.488 103.068,23.029 103.068,22.435 L103.068,8.638 C103.068,8.071 103.527,7.612 104.094,7.612 C104.688,7.612 105.147,8.071 105.147,8.638 L105.147,12.877 L106.551,12.229 C106.794,12.121 107.064,11.824 107.064,11.203 L107.064,8.314 C107.064,7.018 106.038,5.938 104.742,5.911 L103.554,5.911 C102.204,5.911 101.124,6.991 101.124,8.314 L101.124,22.786 C101.124,24.109 102.204,25.189 103.554,25.189 L104.742,25.189 C106.038,25.135 107.064,24.082 107.064,22.786 L107.064,18.223 L107.064,18.223 Z M117.538,5.911 C116.188,5.911 115.108,6.991 115.108,8.314 L115.108,22.813 C115.135,24.109 116.215,25.189 117.538,25.189 L119.023,25.189 C120.319,25.135 121.345,24.109 121.372,22.813 L121.372,8.314 C121.372,7.018 120.319,5.965 119.023,5.911 L117.538,5.911 L117.538,5.911 Z M118.078,23.488 C117.511,23.461 117.052,23.002 117.052,22.435 L117.052,8.665 C117.052,8.098 117.511,7.639 118.078,7.612 L118.375,7.612 C118.942,7.612 119.401,8.071 119.401,8.665 L119.401,22.435 C119.401,23.029 118.942,23.488 118.375,23.488 L118.078,23.488 L118.078,23.488 Z M135.545,6.1 L133.601,6.1 L133.601,16.981 L131.603,7.153 C131.495,6.613 131.306,6.1 130.226,6.1 L129.335,6.1 L129.335,25 L131.279,25 L131.279,14.443 L133.358,23.785 C133.439,24.163 133.601,25 134.654,25 L135.545,25 L135.545,6.1 L135.545,6.1 Z M159.139,6.1 C158.815,6.1 158.572,6.37 158.572,6.667 L158.572,25 L159.922,25 C160.219,25 160.489,24.757 160.489,24.433 L160.489,16.792 C160.489,16.522 160.705,16.333 160.975,16.333 L162.271,16.333 C162.892,16.333 163.162,16.036 163.297,15.793 L163.945,14.389 L160.489,14.389 L160.489,8.503 C160.489,8.26 160.705,8.044 160.948,8.044 L163.108,8.044 C163.729,8.044 163.999,7.747 164.134,7.504 C164.215,7.342 164.566,6.586 164.755,6.1 L159.139,6.1 L159.139,6.1 Z M172.718,6.1 L172.718,24.595 C172.745,24.73 172.826,25 173.285,25 L174.662,25 L174.662,6.856 C174.662,6.532 174.446,6.1 173.879,6.1 L172.718,6.1 L172.718,6.1 Z M186.081,23.083 L186.081,6.694 C186.081,6.37 185.811,6.127 185.487,6.1 L184.137,6.1 L184.137,25 L188.781,25 C189.402,25 189.699,24.73 189.834,24.487 C189.915,24.325 190.239,23.569 190.455,23.083 L186.081,23.083 L186.081,23.083 Z M203.899,6.1 L202.711,6.1 C202.009,6.1 201.874,6.694 201.847,6.775 L199.714,17.656 L197.473,6.802 C197.473,6.802 197.365,6.1 196.609,6.1 L195.421,6.1 L195.421,25 L197.338,25 L197.338,15.253 L198.472,20.194 C198.58,20.599 198.796,21.733 199.93,21.733 L200.524,21.733 L201.982,15.253 L201.982,25 L203.899,25 L203.899,6.1 L203.899,6.1 Z M216.587,10.204 C216.83,10.069 217.127,9.772 217.127,9.151 L217.127,8.422 C217.127,7.126 216.074,5.938 214.778,5.911 L213.563,5.911 C212.213,5.911 211.133,7.099 211.133,8.422 L211.133,10.366 C211.133,10.366 211.052,11.635 211.997,13.363 L214.319,17.71 C214.319,17.71 215.156,19.168 215.156,20.275 L215.156,22.435 C215.156,23.029 214.697,23.488 214.13,23.488 C213.563,23.488 213.104,23.029 213.104,22.462 L213.104,19.168 C212.618,19.384 211.835,19.735 211.673,19.789 C211.43,19.924 211.133,20.221 211.133,20.842 L211.133,22.786 C211.16,24.082 212.186,25.135 213.482,25.189 L214.697,25.189 C216.047,25.189 217.127,24.109 217.127,22.786 L217.127,20.383 C217.127,20.383 217.208,19.114 216.263,17.386 L213.941,13.012 C213.941,13.012 213.104,11.581 213.104,10.474 L213.104,8.665 C213.104,8.071 213.563,7.612 214.13,7.612 C214.697,7.612 215.156,8.071 215.156,8.665 L215.156,10.852 C215.669,10.636 216.425,10.285 216.587,10.204 L216.587,10.204 L216.587,10.204 Z" id="Falcon-Films-Copy"></path>
                    <g id="logo-copy">
                        <path d="M19.3657143,8.33959184 L20.6077551,12.0089796 L24.5053061,5.05673469 L36.6195918,1.77635684e-15 L26.2959184,8.32204082 L18.3032653,22.0167347 L10.3236735,8.32204082 L0,1.77635684e-15 L12.1142857,5.05673469 L16.0122449,12.0089796 L17.0346939,6.89346939 L18.3097959,6.26816327 L20.8926531,7.72530612 L19.3657143,8.33959184 L19.3657143,8.33959184 Z" id="Shape"></path>
                        <path d="M10.6995918,12.0616327 L5.89795918,8.93673469 L1.07020408,2.55795918 L9.04326531,9.19795918 L10.6995918,12.0616327 L10.6995918,12.0616327 Z" id="Shape"></path>
                        <path d="M13.7436735,17.2869388 L6.5122449,10.5869388 L11.6530612,13.7097959 L13.7436735,17.2869388 L13.7436735,17.2869388 Z" id="Shape"></path>
                        <path d="M25.9204082,12.0616327 L30.7216327,8.93673469 L35.5489796,2.55795918 L27.5763265,9.19795918 L25.9204082,12.0616327 L25.9204082,12.0616327 Z" id="Shape"></path>
                        <path d="M22.8763265,17.2869388 L30.1073469,10.5869388 L24.9669388,13.7097959 L22.8763265,17.2869388 L22.8763265,17.2869388 Z" id="Shape"></path>
                        <path d="M15.5971429,29.1795918 L13.8526531,26.6514286 L17.0191837,22.4383673 L15.5971429,29.1795918 L15.5971429,29.1795918 Z" id="Shape"></path>
                        <path d="M20.9171429,29.1795918 L22.6616327,26.6514286 L19.4946939,22.4383673 L20.9171429,29.1795918 L20.9171429,29.1795918 Z" id="Shape"></path>
                        <path d="M18.3032653,23.7281633 L17.0191837,29.9440816 L19.4946939,29.9440816 L18.3032653,23.7281633 L18.3032653,23.7281633 Z" id="Shape"></path>
                    </g>
                </g>
            </g>
        </g>
    </g>
</svg>