<?xml version="1.0" encoding="UTF-8" standalone="no"?>
<svg width="25px" height="25px" viewBox="0 0 25 25" version="1.1" xmlns="http://www.w3.org/2000/svg" xmlns:xlink="http://www.w3.org/1999/xlink" xmlns:sketch="http://www.bohemiancoding.com/sketch/ns">
    <!-- Generator: Sketch 3.4.4 (17249) - http://www.bohemiancoding.com/sketch -->
    <title>Page 1</title>
    <desc>Created with Sketch.</desc>
    <defs></defs>
    <g id="Page-1" stroke="none" stroke-width="1" fill="none" fill-rule="evenodd" sketch:type="MSPage">
        <g id="falconfilms" sketch:type="MSArtboardGroup" transform="translate(-880.000000, -2081.000000)" fill="#0088CC">
            <path d="M892.5,2081 C885.596667,2081 880,2086.59667 880,2093.5 C880,2100.40333 885.596667,2106 892.5,2106 C899.403333,2106 905,2100.40333 905,2093.5 C905,2086.59667 899.403333,2081 892.5,2081 L892.5,2081 Z M892.5,2105 C886.158667,2105 881,2099.84133 881,2093.5 C881,2087.15867 886.158667,2082 892.5,2082 C898.841333,2082 904,2087.15867 904,2093.5 C904,2099.84133 898.841333,2105 892.5,2105 L892.5,2105 Z M889.474,2098.75 L898.474,2093.5 L889.474,2088.25 L889.474,2098.75 Z M890.474,2089.98933 L896.489333,2093.5 L890.474,2097.008 L890.474,2089.98933 Z" id="Page-1" sketch:type="MSShapeGroup"></path>
        </g>
    </g>
</svg>