<?xml version="1.0" encoding="UTF-8" standalone="no"?>
<svg width="37px" height="30px" viewBox="0 0 37 30" version="1.1" xmlns="http://www.w3.org/2000/svg" xmlns:xlink="http://www.w3.org/1999/xlink" xmlns:sketch="http://www.bohemiancoding.com/sketch/ns">
    <!-- Generator: Sketch 3.5.1 (25234) - http://www.bohemiancoding.com/sketch -->
    <title>logo copy</title>
    <desc>Created with Sketch.</desc>
    <defs></defs>
    <g id="Page-1" stroke="none" stroke-width="1" fill="none" fill-rule="evenodd" sketch:type="MSPage">
        <g id="logo-copy" sketch:type="MSLayerGroup" fill="#FFFFFF">
            <path d="M19.3657143,8.33959184 L20.6077551,12.0089796 L24.5053061,5.05673469 L36.6195918,1.77635684e-15 L26.2959184,8.32204082 L18.3032653,22.0167347 L10.3236735,8.32204082 L0,1.77635684e-15 L12.1142857,5.05673469 L16.0122449,12.0089796 L17.0346939,6.89346939 L18.3097959,6.26816327 L20.8926531,7.72530612 L19.3657143,8.33959184 Z" id="Shape" sketch:type="MSShapeGroup"></path>
            <path d="M10.6995918,12.0616327 L5.89795918,8.93673469 L1.07020408,2.55795918 L9.04326531,9.19795918 L10.6995918,12.0616327 Z" id="Shape" sketch:type="MSShapeGroup"></path>
            <path d="M13.7436735,17.2869388 L6.5122449,10.5869388 L11.6530612,13.7097959 L13.7436735,17.2869388 Z" id="Shape" sketch:type="MSShapeGroup"></path>
            <path d="M25.9204082,12.0616327 L30.7216327,8.93673469 L35.5489796,2.55795918 L27.5763265,9.19795918 L25.9204082,12.0616327 Z" id="Shape" sketch:type="MSShapeGroup"></path>
            <path d="M22.8763265,17.2869388 L30.1073469,10.5869388 L24.9669388,13.7097959 L22.8763265,17.2869388 Z" id="Shape" sketch:type="MSShapeGroup"></path>
            <path d="M15.5971429,29.1795918 L13.8526531,26.6514286 L17.0191837,22.4383673 L15.5971429,29.1795918 Z" id="Shape" sketch:type="MSShapeGroup"></path>
            <path d="M20.9171429,29.1795918 L22.6616327,26.6514286 L19.4946939,22.4383673 L20.9171429,29.1795918 Z" id="Shape" sketch:type="MSShapeGroup"></path>
            <path d="M18.3032653,23.7281633 L17.0191837,29.9440816 L19.4946939,29.9440816 L18.3032653,23.7281633 Z" id="Shape" sketch:type="MSShapeGroup"></path>
        </g>
    </g>
</svg>