<?xml version="1.0" encoding="UTF-8" standalone="no"?>
<svg width="160px" height="181px" viewBox="0 0 160 181" version="1.1" xmlns="http://www.w3.org/2000/svg" xmlns:xlink="http://www.w3.org/1999/xlink" xmlns:sketch="http://www.bohemiancoding.com/sketch/ns">
    <!-- Generator: Sketch 3.5.2 (25235) - http://www.bohemiancoding.com/sketch -->
    <title>logo + Falcon Films Copy</title>
    <desc>Created with Sketch.</desc>
    <defs></defs>
    <g id="Page-1" stroke="none" stroke-width="1" fill="none" fill-rule="evenodd" sketch:type="MSPage">
        <g id="falconfilms" sketch:type="MSArtboardGroup" transform="translate(-620.000000, -146.000000)" fill="#FFFFFF">
            <g id="logo-+-Falcon-Films-Copy" sketch:type="MSLayerGroup" transform="translate(620.000000, 146.000000)">
                <g id="logo" sketch:type="MSShapeGroup">
                    <path d="M84.5440095,36.4346992 L89.9655323,52.4584141 L106.978388,22.0989106 L159.857388,0.0168411398 L114.794432,36.3580563 L79.9064072,96.1609132 L45.075395,36.3580563 L0.0124388853,0.0168411398 L52.8914385,22.0989106 L69.9060762,52.4584141 L74.369078,30.1196801 L79.9349134,27.3890537 L91.2091152,33.7521974 L84.5440095,36.4346992 Z" id="Shape"></path>
                    <path d="M46.7162831,52.6883429 L25.7571001,39.0423405 L4.68389229,11.1870994 L39.4863983,40.1830721 L46.7162831,52.6883429 Z" id="Shape"></path>
                    <path d="M60.0037352,75.5065407 L28.4384645,46.2485562 L50.8781882,59.8856466 L60.0037352,75.5065407 Z" id="Shape"></path>
                    <path d="M113.155325,52.6883429 L134.112727,39.0423405 L155.184153,11.1870994 L120.383429,40.1830721 L113.155325,52.6883429 Z" id="Shape"></path>
                    <path d="M99.8678732,75.5065407 L131.431362,46.2485562 L108.99342,59.8856466 L99.8678732,75.5065407 Z" id="Shape"></path>
                    <path d="M68.0941509,127.440132 L60.4794324,116.399988 L74.3013758,98.0021254 L68.0941509,127.440132 Z" id="Shape"></path>
                    <path d="M91.3160135,127.440132 L98.9307319,116.399988 L85.1070069,98.0021254 L91.3160135,127.440132 Z" id="Shape"></path>
                    <path d="M79.9064072,103.634488 L74.3013758,130.778554 L85.1070069,130.778554 L79.9064072,103.634488 Z" id="Shape"></path>
                </g>
                <path d="M20.4645776,165.312766 C20.2085776,165.312766 20.0165776,165.526383 20.0165776,165.761362 L20.0165776,180.265957 L21.0832443,180.265957 C21.3179109,180.265957 21.5312443,180.073702 21.5312443,179.817362 L21.5312443,173.772 C21.5312443,173.558383 21.7019109,173.408851 21.9152443,173.408851 L22.9392443,173.408851 C23.4299109,173.408851 23.6432443,173.173872 23.7499109,172.981617 L24.2619109,171.870809 L21.5312443,171.870809 L21.5312443,167.213957 C21.5312443,167.021702 21.7019109,166.850809 21.8939109,166.850809 L23.6005776,166.850809 C24.0912443,166.850809 24.3045776,166.61583 24.4112443,166.423574 C24.4752443,166.295404 24.7525776,165.697277 24.9019109,165.312766 L20.4645776,165.312766 Z M35.6309974,180.265957 L33.9456641,180.265957 L32.6016641,169.969617 L31.2576641,180.265957 L29.5723308,180.265957 L31.8336641,165.312766 L32.6656641,165.312766 C33.3056641,165.312766 33.4123308,165.718638 33.4763308,166.124511 L35.6309974,180.265957 Z M43.0320839,178.749277 L43.0320839,165.782723 C43.0320839,165.526383 42.8187506,165.334128 42.5627506,165.312766 L41.4960839,165.312766 L41.4960839,180.265957 L45.1654172,180.265957 C45.6560839,180.265957 45.8907506,180.05234 45.9974172,179.860085 C46.0614172,179.731915 46.3174172,179.133787 46.4880839,178.749277 L43.0320839,178.749277 Z M55.9371704,174.90417 C55.5531704,175.075064 54.955837,175.331404 54.827837,175.395489 C54.635837,175.502298 54.4225037,175.737277 54.4225037,176.228596 L54.4225037,178.236596 C54.4225037,178.706553 54.059837,179.069702 53.5905037,179.069702 C53.1425037,179.069702 52.779837,178.706553 52.779837,178.236596 L52.779837,167.320766 C52.779837,166.87217 53.1425037,166.509021 53.5905037,166.509021 C54.059837,166.509021 54.4225037,166.87217 54.4225037,167.320766 L54.4225037,170.674553 L55.531837,170.161872 C55.723837,170.076426 55.9371704,169.841447 55.9371704,169.350128 L55.9371704,167.064426 C55.9371704,166.039064 55.1265037,165.184596 54.1025037,165.163234 L53.163837,165.163234 C52.0971704,165.163234 51.243837,166.017702 51.243837,167.064426 L51.243837,178.514298 C51.243837,179.561021 52.0971704,180.415489 53.163837,180.415489 L54.1025037,180.415489 C55.1265037,180.372766 55.9371704,179.53966 55.9371704,178.514298 L55.9371704,174.90417 Z M64.2129235,165.163234 C63.1462568,165.163234 62.2929235,166.017702 62.2929235,167.064426 L62.2929235,178.53566 C62.3142568,179.561021 63.1675902,180.415489 64.2129235,180.415489 L65.3862568,180.415489 C66.4102568,180.372766 67.2209235,179.561021 67.2422568,178.53566 L67.2422568,167.064426 C67.2422568,166.039064 66.4102568,165.205957 65.3862568,165.163234 L64.2129235,165.163234 Z M64.6395902,179.069702 C64.1915902,179.04834 63.8289235,178.685191 63.8289235,178.236596 L63.8289235,167.342128 C63.8289235,166.893532 64.1915902,166.530383 64.6395902,166.509021 L64.8742568,166.509021 C65.3222568,166.509021 65.6849235,166.87217 65.6849235,167.342128 L65.6849235,178.236596 C65.6849235,178.706553 65.3222568,179.069702 64.8742568,179.069702 L64.6395902,179.069702 Z M78.4406766,165.312766 L76.9046766,165.312766 L76.9046766,173.921532 L75.32601,166.145872 C75.2406766,165.718638 75.0913433,165.312766 74.23801,165.312766 L73.53401,165.312766 L73.53401,180.265957 L75.07001,180.265957 L75.07001,171.913532 L76.7126766,179.304681 C76.7766766,179.603745 76.9046766,180.265957 77.7366766,180.265957 L78.4406766,180.265957 L78.4406766,165.312766 Z M97.0828496,165.312766 C96.8268496,165.312766 96.6348496,165.526383 96.6348496,165.761362 L96.6348496,180.265957 L97.7015162,180.265957 C97.9361829,180.265957 98.1495162,180.073702 98.1495162,179.817362 L98.1495162,173.772 C98.1495162,173.558383 98.3201829,173.408851 98.5335162,173.408851 L99.5575162,173.408851 C100.048183,173.408851 100.261516,173.173872 100.368183,172.981617 L100.880183,171.870809 L98.1495162,171.870809 L98.1495162,167.213957 C98.1495162,167.021702 98.3201829,166.850809 98.5121829,166.850809 L100.21885,166.850809 C100.709516,166.850809 100.92285,166.61583 101.029516,166.423574 C101.093516,166.295404 101.37085,165.697277 101.520183,165.312766 L97.0828496,165.312766 Z M107.811936,165.312766 L107.811936,179.945532 C107.833269,180.05234 107.897269,180.265957 108.259936,180.265957 L109.347936,180.265957 L109.347936,165.910894 C109.347936,165.654553 109.177269,165.312766 108.729269,165.312766 L107.811936,165.312766 Z M118.370356,178.749277 L118.370356,165.782723 C118.370356,165.526383 118.157023,165.334128 117.901023,165.312766 L116.834356,165.312766 L116.834356,180.265957 L120.503689,180.265957 C120.994356,180.265957 121.229023,180.05234 121.335689,179.860085 C121.399689,179.731915 121.655689,179.133787 121.826356,178.749277 L118.370356,178.749277 Z M132.448776,165.312766 L131.510109,165.312766 C130.955442,165.312766 130.848776,165.782723 130.827442,165.846809 L129.142109,174.455574 L127.371442,165.86817 C127.371442,165.86817 127.286109,165.312766 126.688776,165.312766 L125.750109,165.312766 L125.750109,180.265957 L127.264776,180.265957 L127.264776,172.554383 L128.160776,176.463574 C128.246109,176.784 128.416776,177.681191 129.312776,177.681191 L129.782109,177.681191 L130.934109,172.554383 L130.934109,180.265957 L132.448776,180.265957 L132.448776,165.312766 Z M142.473862,168.559745 C142.665862,168.452936 142.900529,168.217957 142.900529,167.726638 L142.900529,167.149872 C142.900529,166.124511 142.068529,165.184596 141.044529,165.163234 L140.084529,165.163234 C139.017862,165.163234 138.164529,166.103149 138.164529,167.149872 L138.164529,168.687915 C138.164529,168.687915 138.100529,169.691915 138.847195,171.059064 L140.681862,174.498298 C140.681862,174.498298 141.343195,175.65183 141.343195,176.52766 L141.343195,178.236596 C141.343195,178.706553 140.980529,179.069702 140.532529,179.069702 C140.084529,179.069702 139.721862,178.706553 139.721862,178.257957 L139.721862,175.65183 C139.337862,175.822723 138.719195,176.100426 138.591195,176.143149 C138.399195,176.249957 138.164529,176.484936 138.164529,176.976255 L138.164529,178.514298 C138.185862,179.53966 138.996529,180.372766 140.020529,180.415489 L140.980529,180.415489 C142.047195,180.415489 142.900529,179.561021 142.900529,178.514298 L142.900529,176.613106 C142.900529,176.613106 142.964529,175.609106 142.217862,174.241957 L140.383195,170.781362 C140.383195,170.781362 139.721862,169.649191 139.721862,168.773362 L139.721862,167.342128 C139.721862,166.87217 140.084529,166.509021 140.532529,166.509021 C140.980529,166.509021 141.343195,166.87217 141.343195,167.342128 L141.343195,169.072426 C141.748529,168.901532 142.345862,168.62383 142.473862,168.559745 L142.473862,168.559745 Z" id="Falcon-Films-Copy" sketch:type="MSShapeGroup"></path>
            </g>
        </g>
    </g>
</svg>