<?xml version="1.0" encoding="UTF-8" standalone="no"?>
<svg width="300px" height="376px" viewBox="0 0 300 376" version="1.1" xmlns="http://www.w3.org/2000/svg" xmlns:xlink="http://www.w3.org/1999/xlink" xmlns:sketch="http://www.bohemiancoding.com/sketch/ns">
    <!-- Generator: Sketch 3.4.4 (17249) - http://www.bohemiancoding.com/sketch -->
    <title>logo + Falcon Films Copy</title>
    <desc>Created with Sketch.</desc>
    <defs></defs>
    <g id="Page-1" stroke="none" stroke-width="1" fill="none" fill-rule="evenodd" sketch:type="MSPage">
        <g id="falconfilms-logo-white" sketch:type="MSArtboardGroup" transform="translate(-450.000000, -402.000000)" fill="#FFFFFF">
            <g id="logo-+-Falcon-Films-Copy" sketch:type="MSLayerGroup" transform="translate(450.000000, 402.000000)">
                <g id="logo" sketch:type="MSShapeGroup">
                    <path d="M158.520018,68.2243371 L168.685373,98.228903 L200.584478,41.3804302 L299.732602,0.0315352021 L215.23956,68.0808225 L149.824514,180.062268 L84.5163656,68.0808225 L0.0233229099,0.0315352021 L99.1714472,41.3804302 L131.073893,98.228903 L139.442021,56.3994009 L149.877963,51.2862758 L171.017091,63.2013258 L158.520018,68.2243371 Z" id="Shape"></path>
                    <path d="M87.5930308,98.6594468 L48.2945627,73.1071714 L8.78229804,20.947955 L74.0369968,75.2432028 L87.5930308,98.6594468 Z" id="Shape"></path>
                    <path d="M112.507004,141.38675 L53.3221208,86.6008821 L95.3966028,112.13647 L112.507004,141.38675 Z" id="Shape"></path>
                    <path d="M212.166235,98.6594468 L251.461363,73.1071714 L290.970287,20.947955 L225.718928,75.2432028 L212.166235,98.6594468 Z" id="Shape"></path>
                    <path d="M187.252262,141.38675 L246.433804,86.6008821 L204.362663,112.13647 L187.252262,141.38675 Z" id="Shape"></path>
                    <path d="M127.676533,238.632916 L113.398936,217.960137 L139.31508,183.509956 L127.676533,238.632916 Z" id="Shape"></path>
                    <path d="M171.217525,238.632916 L185.495122,217.960137 L159.575638,183.509956 L171.217525,238.632916 Z" id="Shape"></path>
                    <path d="M149.824514,194.056611 L139.31508,244.884145 L159.575638,244.884145 L149.824514,194.056611 Z" id="Shape"></path>
                </g>
                <path d="M38.371083,347 C37.891083,347 37.531083,347.4 37.531083,347.84 L37.531083,375 L39.531083,375 C39.971083,375 40.371083,374.64 40.371083,374.16 L40.371083,362.84 C40.371083,362.44 40.691083,362.16 41.091083,362.16 L43.011083,362.16 C43.931083,362.16 44.331083,361.72 44.531083,361.36 L45.491083,359.28 L40.371083,359.28 L40.371083,350.56 C40.371083,350.2 40.691083,349.88 41.051083,349.88 L44.251083,349.88 C45.171083,349.88 45.571083,349.44 45.771083,349.08 C45.891083,348.84 46.411083,347.72 46.691083,347 L38.371083,347 Z M66.8081202,375 L63.6481202,375 L61.1281202,355.72 L58.6081202,375 L55.4481202,375 L59.6881202,347 L61.2481202,347 C62.4481202,347 62.6481202,347.76 62.7681202,348.52 L66.8081202,375 Z M80.6851573,372.16 L80.6851573,347.88 C80.6851573,347.4 80.2851573,347.04 79.8051573,347 L77.8051573,347 L77.8051573,375 L84.6851573,375 C85.6051573,375 86.0451573,374.6 86.2451573,374.24 C86.3651573,374 86.8451573,372.88 87.1651573,372.16 L80.6851573,372.16 Z M104.882194,364.96 C104.162194,365.28 103.042194,365.76 102.802194,365.88 C102.442194,366.08 102.042194,366.52 102.042194,367.44 L102.042194,371.2 C102.042194,372.08 101.362194,372.76 100.482194,372.76 C99.6421944,372.76 98.9621944,372.08 98.9621944,371.2 L98.9621944,350.76 C98.9621944,349.92 99.6421944,349.24 100.482194,349.24 C101.362194,349.24 102.042194,349.92 102.042194,350.76 L102.042194,357.04 L104.122194,356.08 C104.482194,355.92 104.882194,355.48 104.882194,354.56 L104.882194,350.28 C104.882194,348.36 103.362194,346.76 101.442194,346.72 L99.6821944,346.72 C97.6821944,346.72 96.0821944,348.32 96.0821944,350.28 L96.0821944,371.72 C96.0821944,373.68 97.6821944,375.28 99.6821944,375.28 L101.442194,375.28 C103.362194,375.2 104.882194,373.64 104.882194,371.72 L104.882194,364.96 Z M120.399232,346.72 C118.399232,346.72 116.799232,348.32 116.799232,350.28 L116.799232,371.76 C116.839232,373.68 118.439232,375.28 120.399232,375.28 L122.599232,375.28 C124.519232,375.2 126.039232,373.68 126.079232,371.76 L126.079232,350.28 C126.079232,348.36 124.519232,346.8 122.599232,346.72 L120.399232,346.72 Z M121.199232,372.76 C120.359232,372.72 119.679232,372.04 119.679232,371.2 L119.679232,350.8 C119.679232,349.96 120.359232,349.28 121.199232,349.24 L121.639232,349.24 C122.479232,349.24 123.159232,349.92 123.159232,350.8 L123.159232,371.2 C123.159232,372.08 122.479232,372.76 121.639232,372.76 L121.199232,372.76 Z M147.076269,347 L144.196269,347 L144.196269,363.12 L141.236269,348.56 C141.076269,347.76 140.796269,347 139.196269,347 L137.876269,347 L137.876269,375 L140.756269,375 L140.756269,359.36 L143.836269,373.2 C143.956269,373.76 144.196269,375 145.756269,375 L147.076269,375 L147.076269,347 Z M182.030343,347 C181.550343,347 181.190343,347.4 181.190343,347.84 L181.190343,375 L183.190343,375 C183.630343,375 184.030343,374.64 184.030343,374.16 L184.030343,362.84 C184.030343,362.44 184.350343,362.16 184.750343,362.16 L186.670343,362.16 C187.590343,362.16 187.990343,361.72 188.190343,361.36 L189.150343,359.28 L184.030343,359.28 L184.030343,350.56 C184.030343,350.2 184.350343,349.88 184.710343,349.88 L187.910343,349.88 C188.830343,349.88 189.230343,349.44 189.430343,349.08 C189.550343,348.84 190.070343,347.72 190.350343,347 L182.030343,347 Z M202.14738,347 L202.14738,374.4 C202.18738,374.6 202.30738,375 202.98738,375 L205.02738,375 L205.02738,348.12 C205.02738,347.64 204.70738,347 203.86738,347 L202.14738,347 Z M221.944417,372.16 L221.944417,347.88 C221.944417,347.4 221.544417,347.04 221.064417,347 L219.064417,347 L219.064417,375 L225.944417,375 C226.864417,375 227.304417,374.6 227.504417,374.24 C227.624417,374 228.104417,372.88 228.424417,372.16 L221.944417,372.16 Z M248.341454,347 L246.581454,347 C245.541454,347 245.341454,347.88 245.301454,348 L242.141454,364.12 L238.821454,348.04 C238.821454,348.04 238.661454,347 237.541454,347 L235.781454,347 L235.781454,375 L238.621454,375 L238.621454,360.56 L240.301454,367.88 C240.461454,368.48 240.781454,370.16 242.461454,370.16 L243.341454,370.16 L245.501454,360.56 L245.501454,375 L248.341454,375 L248.341454,347 Z M267.138492,353.08 C267.498492,352.88 267.938492,352.44 267.938492,351.52 L267.938492,350.44 C267.938492,348.52 266.378492,346.76 264.458492,346.72 L262.658492,346.72 C260.658492,346.72 259.058492,348.48 259.058492,350.44 L259.058492,353.32 C259.058492,353.32 258.938492,355.2 260.338492,357.76 L263.778492,364.2 C263.778492,364.2 265.018492,366.36 265.018492,368 L265.018492,371.2 C265.018492,372.08 264.338492,372.76 263.498492,372.76 C262.658492,372.76 261.978492,372.08 261.978492,371.24 L261.978492,366.36 C261.258492,366.68 260.098492,367.2 259.858492,367.28 C259.498492,367.48 259.058492,367.92 259.058492,368.84 L259.058492,371.72 C259.098492,373.64 260.618492,375.2 262.538492,375.28 L264.338492,375.28 C266.338492,375.28 267.938492,373.68 267.938492,371.72 L267.938492,368.16 C267.938492,368.16 268.058492,366.28 266.658492,363.72 L263.218492,357.24 C263.218492,357.24 261.978492,355.12 261.978492,353.48 L261.978492,350.8 C261.978492,349.92 262.658492,349.24 263.498492,349.24 C264.338492,349.24 265.018492,349.92 265.018492,350.8 L265.018492,354.04 C265.778492,353.72 266.898492,353.2 267.138492,353.08 L267.138492,353.08 Z" id="Falcon-Films-Copy" sketch:type="MSShapeGroup"></path>
            </g>
        </g>
    </g>
</svg>